{"title":"The Twilight Saga Breaking Dawn Part 2 2012 BRRip 720p - PRiSTiN","uid":8165911,"size":685499768,"categoryP":"video","categoryS":"hd___movies","magnet":"?xt=urn:btih:75ce9a2ed184446e40d3418219a01284a606c4ea&amp;dn=The+Twilight+Saga+Breaking+Dawn+Part+2+2012+BRRip+720p+-+PRiSTiN&amp;tr=udp%3A%2F%2Ftracker.openbittorrent.com%3A80&amp;tr=udp%3A%2F%2Fopen.demonii.com%3A1337&amp;tr=udp%3A%2F%2Ftracker.coppersurfer.tk%3A6969&amp;tr=udp%3A%2F%2Fexodus.desync.com%3A6969","seeders":4,"leechers":7,"uploader":"Vitamin_X","files":-1,"time":1361333689,"description":"_________________________  Visit us at _________________________\n  &lt;a href=&quot;\nhttp://p2pdl.com&quot; rel=&quot;nofollow&quot; target=&quot;_NEW&quot;&gt;\nhttp://p2pdl.com&lt;/a&gt;  ____________________________ &lt;a href=&quot; http://p2pdl.com&quot; rel=&quot;nofollow&quot; target=&quot;_NEW&quot;&gt; http://p2pdl.com&lt;/a&gt;\n\n &lt;a href=&quot;\nhttp://www.shotpix.com/images/70554458230002069883.jpg&quot; rel=&quot;nofollow&quot; target=&quot;_NEW&quot;&gt;\nhttp://www.shotpix.com/images/70554458230002069883.jpg&lt;/a&gt;\n\nThe Twilight Saga Breaking Dawn Part 2 2012 BRRip 720p x264 - PRiSTiNE [P2PDL] \n\t\t\t\t\nGenre: Adventure | Drama | Fantasy | Romance\nAfter the birth of Renesmee, the Cullens gather other vampire clans in order to protect \nthe child from a false allegation that puts the family in front of the Volturi.\nDirector: Bill Condon\nStars:  Kristen Stewart, Robert Pattinson, Taylor Lautner\n\nInfo:  &lt;a href=&quot;\nhttp://www.imdb.com/title/tt1673434/&quot; rel=&quot;nofollow&quot; target=&quot;_NEW&quot;&gt;\nhttp://www.imdb.com/title/tt1673434/&lt;/a&gt;\n &lt;a href=&quot;\nhttp://www.rottentomatoes.com/m/the_twilight_saga_breaking_dawn_part_2/&quot; rel=&quot;nofollow&quot; target=&quot;_NEW&quot;&gt;\nhttp://www.rottentomatoes.com/m/the_twilight_saga_breaking_dawn_part_2/&lt;/a&gt;\n\nGeneral\nComplete name                  : The Twilight Saga Breaking Dawn Part 2 2012 BRRip 720p x264 - PRiSTiNE [P2PDL].mp4\nFormat                         : MPEG-4\nFormat profile                 : Base Media / Version 2\nCodec ID                       : mp42\nFile size                      : 647 MiB\nDuration                       : 1h 55mn\nOverall bit rate mode          : Variable\nOverall bit rate               : 785 Kbps\n\nSource                         : 720p Bluray Geckos (Thanks)\n\nVideo\nFormat                         : AVC\nFormat/Info                    : Advanced Video Codec\nWidth                          : 1 280 pixels\nHeight                         : 536 pixels\nDisplay aspect ratio           : 2.40:1\nFrame rate mode                : Variable\nFrame rate                     : 23.976 fps\nColor space                    : YUV\nChroma subsampling             : 4:2:0\nBit depth                      : 8 bits\nScan type                      : Progressive\nBits/(Pixel*Frame)             : 0.043\nStream size                    : 577 MiB (89%)\nWriting library                : x264 core 129\n\nAudio\nFormat                         : AAC\nBit rate mode                  : Variable\nBit rate                       : 80.0 Kbps\nChannel(s)                     : 2 channels\nChannel positions              : Front: L R\nSampling rate                  : 48.0 KHz\nStream size                    : 65.9 MiB (10%)\nLanguage                       : English\n\nSubtitle                       : Yes ( English)\n\n\nScreens: &lt;a href=&quot;\nhttp://www.shotpix.com/images/63256642536799683881.jpg&quot; rel=&quot;nofollow&quot; target=&quot;_NEW&quot;&gt;\nhttp://www.shotpix.com/images/63256642536799683881.jpg&lt;/a&gt; &lt;a href=&quot;\nhttp://www.shotpix.com/images/17303058132722568748.jpg&quot; rel=&quot;nofollow&quot; target=&quot;_NEW&quot;&gt;\nhttp://www.shotpix.com/images/17303058132722568748.jpg&lt;/a&gt; &lt;a href=&quot;\nhttp://www.shotpix.com/images/56714347863350976407.jpg&quot; rel=&quot;nofollow&quot; target=&quot;_NEW&quot;&gt;\nhttp://www.shotpix.com/images/56714347863350976407.jpg&lt;/a&gt; &lt;a href=&quot;\nhttp://www.shotpix.com/images/21357586665325543754.jpg&quot; rel=&quot;nofollow&quot; target=&quot;_NEW&quot;&gt;\nhttp://www.shotpix.com/images/21357586665325543754.jpg&lt;/a&gt;\n\nThumbs: &lt;a href=&quot;\nhttp://www.shotpix.com/images/96295383162667480639.jpg&quot; rel=&quot;nofollow&quot; target=&quot;_NEW&quot;&gt;\nhttp://www.shotpix.com/images/96295383162667480639.jpg&lt;/a&gt;\n\n----------------------------------------------------------------------------------------------------\n\n\nRecommend to you to use latest version of VLC player. Install K-Lite Codec Pack or shark007 codecs\nin case of any kind of problem in playback (For non-VLC Media Player users). Alternatively, install\nCore AVC codecs, the fastest decoder that there is coupled with Community Center Codec Pack and play\non Windows Media Player Classic. Check sample to be sure.\nEnjoy!\n\nGreets to: VYTO, a2zRG, MusiK_KinG, Neon, Kuroyukihime, TorDigger, Ash968, StyLishSaLH and staff members at\nExtraTorrent, TPB, H33T, KAT, 1337x, PublicHD, Ahashare, BTScene, SilverTorrent, LimeTorrents, TorrentMafia,\nP2PDL, and all others.\n\nEncoder Notes: Looking For Early Access To Anything You Can Provide DVDScr, R5, DVDR, BluRay, Direct\nAudio, Early Music Releases, Seedboxes, Dedicated Servers anything u can provide, Advance / Promo CDs/\nDVDs. If You Got anything to offer contact me at &quot;&lt;a class=&quot;__cf_email__&quot; href=&quot;/cdn-cgi/l/email-protection&quot; data-cfemail=&quot;4e3e3c290e263b3d26602d2123&quot;&gt;[email&amp;#160;protected]&lt;/a&gt;&lt;script cf-hash='f9e31' type=&quot;text/javascript&quot;&gt;\n/* &lt;![CDATA[ */!function(){try{var t=&quot;currentScript&quot;in document?document.currentScript:function(){for(var t=document.getElementsByTagName(&quot;script&quot;),e=t.length;e--;)if(t[e].getAttribute(&quot;cf-hash&quot;))return t[e]}();if(t&amp;&amp;t.previousSibling){var e,r,n,i,c=t.previousSibling,a=c.getAttribute(&quot;data-cfemail&quot;);if(a){for(e=&quot;&quot;,r=parseInt(a.substr(0,2),16),n=2;a.length-n;n+=2)i=parseInt(a.substr(n,2),16)^r,e+=String.fromCharCode(i);e=document.createTextNode(e),c.parentNode.replaceChild(e,c)}}}catch(u){}}();/* ]]&gt; */&lt;/script&gt;&quot;.","torrent":{"xt":"urn:btih:75ce9a2ed184446e40d3418219a01284a606c4ea","amp;dn":"The+Twilight+Saga+Breaking+Dawn+Part+2+2012+BRRip+720p+-+PRiSTiN","amp;tr":["udp%3A%2F%2Ftracker.openbittorrent.com%3A80","udp%3A%2F%2Fopen.demonii.com%3A1337","udp%3A%2F%2Ftracker.coppersurfer.tk%3A6969","udp%3A%2F%2Fexodus.desync.com%3A6969"],"infoHash":"75ce9a2ed184446e40d3418219a01284a606c4ea","infoHashBuffer":{"type":"Buffer","data":[117,206,154,46,209,132,68,110,64,211,65,130,25,160,18,132,166,6,196,234]},"announce":[],"urlList":[]}}